<?xml version="1.0" encoding="UTF-8" standalone="no"?>
<!DOCTYPE svg PUBLIC "-//W3C//DTD SVG 1.1//EN" "http://www.w3.org/Graphics/SVG/1.1/DTD/svg11.dtd">
<svg xmlns="http://www.w3.org/2000/svg" xmlns:xlink="http://www.w3.org/1999/xlink" version="1.1" width="631.4499pt" height="646.0899pt" viewBox="0 0 631.4499 646.0899">
<g enable-background="new">
<clipPath id="cp0">
<path transform="matrix(1,0,0,-1,0,646.0899)" d="M 17 10 L 630 10 L 630 471.5743 L 17 471.5743 Z "/>
</clipPath>
<g clip-path="url(#cp0)">
<path transform="matrix(1,0,0,-1,0,646.0899)" d="M 17 196.523 L 21.904 200.2604 L 26.808 202.1665 L 31.712 206.0169 L 36.616 213.8716 L 41.52 219.9982 L 46.424 222.1017 L 51.328 224.2262 L 56.232 230.6635 L 61.136 237.2939 L 66.04 244.1232 L 70.944 239.4338 L 75.848 244.0294 L 80.752 244.0294 L 85.656 244.0294 L 90.56 241.6856 L 95.464 239.3653 L 100.368 243.9596 L 105.272 243.9596 L 110.176 239.2734 L 115.08 236.9772 L 119.984 246.0702 L 124.888 253.1629 L 129.792 262.9034 L 134.696 262.9034 L 139.6 265.4359 L 144.504 275.6673 L 149.408 273.0072 L 154.312 283.5415 L 159.216 278.0636 L 164.12 272.6954 L 169.024 277.9563 L 173.928 283.3224 L 178.832 286.0591 L 183.736 291.5873 L 188.64 285.9486 L 193.544 294.2375 L 198.448 288.5458 L 203.352 296.9126 L 208.256 291.1674 L 213.16 293.9826 L 218.064 296.8259 L 222.968 299.6976 L 227.872 305.4986 L 232.776 314.3741 L 237.68 323.5158 L 242.584 323.5158 L 247.488 326.6544 L 252.392 329.8245 L 257.296 339.4297 L 262.2 346.0253 L 267.104 352.7528 L 272.008 349.3218 L 276.912 356.1152 L 281.816 369.9738 L 286.72 362.7674 L 291.624 373.3609 L 296.528 366.0867 L 301.432 362.5223 L 306.336 373.1085 L 311.24 384.0122 L 316.144 384.0122 L 321.048 398.9867 L 325.952 391.2 L 330.856 387.3845 L 335.76 383.6071 L 340.664 383.6071 L 345.568 379.8676 L 350.472 376.1654 L 355.376 390.826 L 360.28 383.2025 L 365.184 390.6735 L 370.088 402.1043 L 374.992 394.2552 L 379.896 409.6394 L 384.8 405.6395 L 389.704 409.5994 L 394.608 401.6004 L 399.512 393.7614 L 404.416 405.2847 L 409.32 405.2847 L 414.224 421.1101 L 419.128 425.2247 L 424.032 416.9132 L 428.936 420.9859 L 433.84 416.8725 L 438.744 408.728 L 443.648 404.7373 L 448.552 396.8355 L 453.456 392.9637 L 458.36 385.2974 L 463.264 381.5409 L 468.168 388.9787 L 473.072 396.5653 L 477.976 400.4345 L 482.88 412.158 L 487.784 408.1329 L 492.688 424.0722 L 497.592 415.7838 L 502.496 407.6611 L 507.4 399.7009 L 512.304 391.8999 L 517.208 391.8999 L 522.112 384.2549 L 527.016 376.7628 L 531.92 380.4339 L 536.824 395.2653 L 541.728 402.9776 L 546.632 402.9776 L 551.536 406.9108 L 556.44 422.8013 L 561.344 418.6698 L 566.248 426.8502 L 571.152 426.8502 L 576.056 435.1942 L 580.96 452.2159 L 585.864 461.0673 L 590.768 461.0673 L 595.672 456.5531 L 600.576 456.5531 L 605.48 447.615 L 610.384 443.2354 L 615.288 451.9071 L 620.192 460.7522 L 625.096 469.7743 L 630 9.649933 L 17 9.649933 L 17 196.523 " fill="#0a78c2" fill-opacity=".2"/>
</g>
<clipPath id="cp1">
<path transform="matrix(1,0,0,-1,0,646.0899)" d="M 14.84993 7.849933 L 631.4499 7.849933 L 631.4499 624.4499 L 14.84993 624.4499 Z "/>
</clipPath>
<g clip-path="url(#cp1)">
<path transform="matrix(1,0,0,1,16.64993,176.31562)" stroke-width="3" stroke-linecap="butt" stroke-miterlimit="4" stroke-linejoin="miter" fill="none" stroke="#0a78c2" d="M 0 273.2513 L 4.904 269.5138 L 9.808 267.6077 L 14.712 263.7574 L 19.616 255.9027 L 24.52 249.7761 L 29.424 247.6726 L 34.328 245.5481 L 39.232 239.1108 L 44.136 232.4804 L 49.04 225.651 L 53.944 230.3405 L 58.848 225.7448 L 63.752 225.7448 L 68.656 225.7448 L 73.56 228.0886 L 78.464 230.409 L 83.368 225.8147 L 88.272 225.8147 L 93.176 230.5009 L 98.08 232.7971 L 102.984 223.704 L 107.888 216.6114 L 112.792 206.8709 L 117.696 206.8709 L 122.6 204.3384 L 127.504 194.1069 L 132.408 196.7671 L 137.312 186.2328 L 142.216 191.7106 L 147.12 197.0789 L 152.024 191.818 L 156.928 186.4519 L 161.832 183.7151 L 166.736 178.187 L 171.64 183.8257 L 176.544 175.5367 L 181.448 181.2285 L 186.352 172.8616 L 191.256 178.6069 L 196.16 175.7917 L 201.064 172.9484 L 205.968 170.0766 L 210.872 164.2757 L 215.776 155.4002 L 220.68 146.2585 L 225.584 146.2585 L 230.488 143.1198 L 235.392 139.9498 L 240.296 130.3445 L 245.2 123.7489 L 250.104 117.0214 L 255.008 120.4525 L 259.912 113.659 L 264.816 99.80041 L 269.72 107.0069 L 274.624 96.41337 L 279.528 103.6876 L 284.432 107.252 L 289.336 96.66578 L 294.24 85.76203 L 299.144 85.76203 L 304.048 70.78754 L 308.952 78.57427 L 313.856 82.38977 L 318.76 86.16712 L 323.664 86.16712 L 328.568 89.90669 L 333.472 93.60887 L 338.376 78.94825 L 343.28 86.57177 L 348.184 79.10072 L 353.088 67.67001 L 357.992 75.5191 L 362.896 60.13489 L 367.8 64.13478 L 372.704 60.17489 L 377.608 68.17388 L 382.512 76.01288 L 387.416 64.48954 L 392.32 64.48954 L 397.224 48.66415 L 402.128 44.54955 L 407.032 52.86104 L 411.936 48.78841 L 416.84 52.90177 L 421.744 61.04622 L 426.648 65.037 L 431.552 72.93875 L 436.456 76.8106 L 441.36 84.47688 L 446.264 88.23335 L 451.168 80.79553 L 456.072 73.20896 L 460.976 69.3398 L 465.88 57.61627 L 470.784 61.64135 L 475.688 45.70203 L 480.592 53.99048 L 485.496 62.11315 L 490.4 70.07338 L 495.304 77.8744 L 500.208 77.8744 L 505.112 85.51939 L 510.016 93.01149 L 514.92 89.34036 L 519.824 74.50901 L 524.728 66.7967 L 529.632 66.7967 L 534.536 62.86342 L 539.44 46.97299 L 544.344 51.1045 L 549.248 42.9241 L 554.152 42.9241 L 559.056 34.5801 L 563.96 17.55833 L 568.864 8.70701 L 573.768 8.70701 L 578.672 13.22118 L 583.576 13.22118 L 588.48 22.15925 L 593.384 26.5389 L 598.288 17.86719 L 603.192 9.022046 L 608.096 0 "/>
</g>
<clipPath id="cp2">
<path transform="matrix(1,0,0,-1,0,646.0899)" d="M 17 10 L 630 10 L 630 597.6697 L 17 597.6697 Z "/>
</clipPath>
<g clip-path="url(#cp2)">
<path transform="matrix(1,0,0,-1,0,646.0899)" d="M 17 86.27493 L 21.904 90.02956 L 26.808 95.49537 L 31.712 99.53011 L 36.616 104.5634 L 41.52 108.8345 L 46.424 116.1742 L 51.328 121.8199 L 56.232 128.7745 L 61.136 133.6586 L 66.04 138.6189 L 70.944 144.9384 L 75.848 152.7852 L 80.752 160.9439 L 85.656 166.3904 L 90.56 176.5786 L 95.464 183.9234 L 100.368 194.9027 L 105.272 204.5358 L 110.176 216.4238 L 115.08 222.6271 L 119.984 230.9332 L 124.888 241.5548 L 129.792 252.4543 L 134.696 261.1953 L 139.6 269.9993 L 144.504 278.8512 L 149.408 287.7349 L 154.312 302.1953 L 159.216 311.2642 L 164.12 323.3288 L 169.024 335.5622 L 173.928 347.9469 L 178.832 360.4639 L 183.736 376.6013 L 188.64 393.1141 L 193.544 406.1519 L 198.448 415.2715 L 203.352 424.1951 L 208.256 441.1915 L 213.16 458.4532 L 218.064 471.4684 L 222.968 475.163 L 227.872 487.7318 L 232.776 490.6003 L 237.68 493.0051 L 242.584 504.6056 L 247.488 511.04 L 252.392 522.0706 L 257.296 522.583 L 262.2 537.971 L 267.104 542.7259 L 272.008 546.9905 L 276.912 550.7519 L 281.816 553.9985 L 286.72 567.6072 L 291.624 575.4186 L 296.528 588.4313 L 301.432 583.8011 L 306.336 584.3752 L 311.24 595.8697 L 316.144 595.2835 L 321.048 594.1122 L 325.952 586.5142 L 330.856 589.9754 L 335.76 592.8771 L 340.664 595.21 L 345.568 591.111 L 350.472 592.274 L 355.376 587.0303 L 360.28 587.0303 L 365.184 580.6792 L 370.088 568.1165 L 374.992 560.8565 L 379.896 547.6275 L 384.8 550.3174 L 389.704 547.0734 L 394.608 543.3114 L 399.512 539.0421 L 404.416 523.6897 L 409.32 508.2686 L 414.224 507.7699 L 419.128 496.8113 L 424.032 490.4782 L 428.936 483.7466 L 433.84 481.3761 L 438.744 478.5458 L 443.648 465.8856 L 448.552 453.111 L 453.456 440.2506 L 458.36 423.0266 L 463.264 414.3457 L 468.168 405.4424 L 473.072 400.2971 L 477.976 387.0151 L 482.88 381.3546 L 487.784 367.9732 L 492.688 354.7153 L 497.592 345.0534 L 502.496 328.6187 L 507.4 322.2393 L 512.304 309.4231 L 517.208 302.8281 L 522.112 296.085 L 527.016 293.2207 L 531.92 293.2207 L 536.824 290.385 L 541.728 293.1923 L 546.632 296.0277 L 551.536 298.8915 L 556.44 298.8915 L 561.344 301.7839 L 566.248 298.8626 L 571.152 301.7547 L 576.056 298.8337 L 580.96 295.9418 L 585.864 293.0789 L 590.768 295.9132 L 595.672 293.0506 L 600.576 293.0506 L 605.48 290.2166 L 610.384 287.4109 L 615.288 284.6333 L 620.192 287.3831 L 625.096 287.3831 L 630 284.6058 L 630 9.649933 L 17 9.649933 L 17 86.27493 " fill="#c300c1" fill-opacity=".2"/>
</g>
<clipPath id="cp3">
<path transform="matrix(1,0,0,-1,0,646.0899)" d="M 14.84993 7.849933 L 631.4499 7.849933 L 631.4499 624.4499 L 14.84993 624.4499 Z "/>
</clipPath>
<g clip-path="url(#cp3)">
<path transform="matrix(1,0,0,1,16.64993,50.220216)" stroke-width="3" stroke-linecap="butt" stroke-miterlimit="4" stroke-linejoin="miter" fill="none" stroke="#c300c1" d="M 0 509.5948 L 4.904 505.8402 L 9.808 500.3744 L 14.712 496.3396 L 19.616 491.3063 L 24.52 487.0352 L 29.424 479.6956 L 34.328 474.0498 L 39.232 467.0952 L 44.136 462.2111 L 49.04 457.2508 L 53.944 450.9313 L 58.848 443.0846 L 63.752 434.9259 L 68.656 429.4793 L 73.56 419.2912 L 78.464 411.9463 L 83.368 400.9671 L 88.272 391.3339 L 93.176 379.4459 L 98.08 373.2427 L 102.984 364.9366 L 107.888 354.315 L 112.792 343.4154 L 117.696 334.6745 L 122.6 325.8704 L 127.504 317.0185 L 132.408 308.1349 L 137.312 293.6745 L 142.216 284.6056 L 147.12 272.541 L 152.024 260.3075 L 156.928 247.9228 L 161.832 235.4059 L 166.736 219.2684 L 171.64 202.7556 L 176.544 189.7178 L 181.448 180.5983 L 186.352 171.6746 L 191.256 154.6782 L 196.16 137.4166 L 201.064 124.4013 L 205.968 120.7067 L 210.872 108.1379 L 215.776 105.2694 L 220.68 102.8646 L 225.584 91.26412 L 230.488 84.82969 L 235.392 73.79911 L 240.296 73.28669 L 245.2 57.8987 L 250.104 53.14381 L 255.008 48.8792 L 259.912 45.11782 L 264.816 41.8712 L 269.72 28.26249 L 274.624 20.45109 L 279.528 7.438406 L 284.432 12.06866 L 289.336 11.49451 L 294.24 0 L 299.144 .5862198 L 304.048 1.757487 L 308.952 9.355497 L 313.856 5.894311 L 318.76 2.992684 L 323.664 .6597753 L 328.568 4.758695 L 333.472 3.595773 L 338.376 8.83939 L 343.28 8.83939 L 348.184 15.19057 L 353.088 27.75322 L 357.992 35.01328 L 362.896 48.24224 L 367.8 45.55235 L 372.704 48.79636 L 377.608 52.55832 L 382.512 56.82761 L 387.416 72.17999 L 392.32 87.60118 L 397.224 88.0998 L 402.128 99.05844 L 407.032 105.3915 L 411.936 112.1231 L 416.84 114.4936 L 421.744 117.324 L 426.648 129.9842 L 431.552 142.7588 L 436.456 155.6191 L 441.36 172.8432 L 446.264 181.5241 L 451.168 190.4274 L 456.072 195.5727 L 460.976 208.8547 L 465.88 214.5152 L 470.784 227.8965 L 475.688 241.1545 L 480.592 250.8163 L 485.496 267.2511 L 490.4 273.6305 L 495.304 286.4466 L 500.208 293.0416 L 505.112 299.7847 L 510.016 302.6491 L 514.92 302.6491 L 519.824 305.4848 L 524.728 302.6774 L 529.632 299.842 L 534.536 296.9782 L 539.44 296.9782 L 544.344 294.0858 L 549.248 297.0072 L 554.152 294.115 L 559.056 297.0361 L 563.96 299.9279 L 568.864 302.7908 L 573.768 299.9565 L 578.672 302.8192 L 583.576 302.8192 L 588.48 305.6532 L 593.384 308.4588 L 598.288 311.2365 L 603.192 308.4866 L 608.096 308.4866 L 613 311.264 "/>
</g>
</g>
</svg>
