<?xml version="1.0" encoding="UTF-8" standalone="no"?>
<!DOCTYPE svg PUBLIC "-//W3C//DTD SVG 1.1//EN" "http://www.w3.org/Graphics/SVG/1.1/DTD/svg11.dtd">
<svg xmlns="http://www.w3.org/2000/svg" xmlns:xlink="http://www.w3.org/1999/xlink" version="1.1" width="631.1499pt" height="647.5899pt" viewBox="0 0 631.1499 647.5899">
<g enable-background="new">
<g>
<clipPath id="cp0">
<path transform="matrix(1,0,0,-1,0,647.5899)" d="M 0 0 L 631.1499 0 L 631.1499 647.5899 L 0 647.5899 Z "/>
</clipPath>
<g clip-path="url(#cp0)">
<path stroke-width="3" stroke-linecap="square" stroke-miterlimit="4" stroke-linejoin="miter" fill="none" stroke="#c300c1" d="M 16.5 636.0899 L 629.5 636.0899 "/>
</g>
<clipPath id="cp1">
<path transform="matrix(1,0,0,-1,0,647.5899)" d="M 31 225 L 104 225 L 104 382 L 31 382 Z "/>
</clipPath>
<g clip-path="url(#cp1)">
<g>
<clipPath id="cp2">
<path transform="matrix(1,0,0,1,31,265.5899)" d="M 0 0 L 73 0 L 73 157 L 0 157 Z "/>
</clipPath>
<g clip-path="url(#cp2)">
<clipPath id="cp3">
<path transform="matrix(1,0,0,1,31,265.5899)" d="M 0 0 L 73 0 L 73 157 L 0 157 Z "/>
</clipPath>
<g clip-path="url(#cp3)">
<path transform="matrix(1,0,0,1,31,265.5899)" d="M 0 0 L 73 0 L 73 157 L 0 157 Z " fill="#0a78c2"/>
</g>
</g>
</g>
</g>
<clipPath id="cp4">
<path transform="matrix(1,0,0,-1,0,647.5899)" d="M 133 217 L 206 217 L 206 322 L 133 322 Z "/>
</clipPath>
<g clip-path="url(#cp4)">
<g>
<clipPath id="cp5">
<path transform="matrix(1,0,0,1,133,325.5899)" d="M 0 0 L 73 0 L 73 105 L 0 105 Z "/>
</clipPath>
<g clip-path="url(#cp5)">
<clipPath id="cp6">
<path transform="matrix(1,0,0,1,133,325.5899)" d="M 0 0 L 73 0 L 73 105 L 0 105 Z "/>
</clipPath>
<g clip-path="url(#cp6)">
<path transform="matrix(1,0,0,1,133,325.5899)" d="M 0 0 L 73 0 L 73 105 L 0 105 Z " fill="#0a78c2"/>
</g>
</g>
</g>
</g>
<clipPath id="cp7">
<path transform="matrix(1,0,0,-1,0,647.5899)" d="M 236 384 L 309 384 L 309 619 L 236 619 Z "/>
</clipPath>
<g clip-path="url(#cp7)">
<g>
<clipPath id="cp8">
<path transform="matrix(1,0,0,1,236,28.589905)" d="M 0 0 L 73 0 L 73 235 L 0 235 Z "/>
</clipPath>
<g clip-path="url(#cp8)">
<clipPath id="cp9">
<path transform="matrix(1,0,0,1,236,28.589905)" d="M 0 0 L 73 0 L 73 235 L 0 235 Z "/>
</clipPath>
<g clip-path="url(#cp9)">
<path transform="matrix(1,0,0,1,236,28.589905)" d="M 0 0 L 73 0 L 73 235 L 0 235 Z " fill="#0a78c2"/>
</g>
</g>
</g>
</g>
<clipPath id="cp10">
<path transform="matrix(1,0,0,-1,0,647.5899)" d="M 338 509 L 411 509 L 411 614 L 338 614 Z "/>
</clipPath>
<g clip-path="url(#cp10)">
<g>
<clipPath id="cp11">
<path transform="matrix(1,0,0,1,338,33.589906)" d="M 0 0 L 73 0 L 73 105 L 0 105 Z "/>
</clipPath>
<g clip-path="url(#cp11)">
<clipPath id="cp12">
<path transform="matrix(1,0,0,1,338,33.589906)" d="M 0 0 L 73 0 L 73 105 L 0 105 Z "/>
</clipPath>
<g clip-path="url(#cp12)">
<path transform="matrix(1,0,0,1,338,33.589906)" d="M 0 0 L 73 0 L 73 105 L 0 105 Z " fill="#0a78c2"/>
</g>
</g>
</g>
</g>
<clipPath id="cp13">
<path transform="matrix(1,0,0,-1,0,647.5899)" d="M 440 374 L 513 374 L 513 530 L 440 530 Z "/>
</clipPath>
<g clip-path="url(#cp13)">
<g>
<clipPath id="cp14">
<path transform="matrix(1,0,0,1,440,117.589908)" d="M 0 0 L 73 0 L 73 156 L 0 156 Z "/>
</clipPath>
<g clip-path="url(#cp14)">
<clipPath id="cp15">
<path transform="matrix(1,0,0,1,440,117.589908)" d="M 0 0 L 73 0 L 73 156 L 0 156 Z "/>
</clipPath>
<g clip-path="url(#cp15)">
<path transform="matrix(1,0,0,1,440,117.589908)" d="M 0 0 L 73 0 L 73 156 L 0 156 Z " fill="#0a78c2"/>
</g>
</g>
</g>
</g>
<clipPath id="cp16">
<path transform="matrix(1,0,0,-1,0,647.5899)" d="M 542 509 L 615 509 L 615 614 L 542 614 Z "/>
</clipPath>
<g clip-path="url(#cp16)">
<g>
<clipPath id="cp17">
<path transform="matrix(1,0,0,1,542,33.589906)" d="M 0 0 L 73 0 L 73 105 L 0 105 Z "/>
</clipPath>
<g clip-path="url(#cp17)">
<clipPath id="cp18">
<path transform="matrix(1,0,0,1,542,33.589906)" d="M 0 0 L 73 0 L 73 105 L 0 105 Z "/>
</clipPath>
<g clip-path="url(#cp18)">
<path transform="matrix(1,0,0,1,542,33.589906)" d="M 0 0 L 73 0 L 73 105 L 0 105 Z " fill="#0a78c2"/>
</g>
</g>
</g>
</g>
<clipPath id="cp19">
<path transform="matrix(1,0,0,-1,0,647.5899)" d="M 31 82 L 104 82 L 104 225 L 31 225 Z "/>
</clipPath>
<g clip-path="url(#cp19)">
<g>
<clipPath id="cp20">
<path transform="matrix(1,0,0,1,31,422.5899)" d="M 0 0 L 73 0 L 73 143 L 0 143 Z "/>
</clipPath>
<g clip-path="url(#cp20)">
<clipPath id="cp21">
<path transform="matrix(1,0,0,1,31,422.5899)" d="M 0 0 L 73 0 L 73 143 L 0 143 Z "/>
</clipPath>
<g clip-path="url(#cp21)">
<path transform="matrix(1,0,0,1,31,422.5899)" d="M 0 0 L 73 0 L 73 143 L 0 143 Z " fill="#f5f318"/>
</g>
</g>
</g>
</g>
<clipPath id="cp22">
<path transform="matrix(1,0,0,-1,0,647.5899)" d="M 133 105 L 206 105 L 206 217 L 133 217 Z "/>
</clipPath>
<g clip-path="url(#cp22)">
<g>
<clipPath id="cp23">
<path transform="matrix(1,0,0,1,133,430.5899)" d="M 0 0 L 73 0 L 73 112 L 0 112 Z "/>
</clipPath>
<g clip-path="url(#cp23)">
<clipPath id="cp24">
<path transform="matrix(1,0,0,1,133,430.5899)" d="M 0 0 L 73 0 L 73 112 L 0 112 Z "/>
</clipPath>
<g clip-path="url(#cp24)">
<path transform="matrix(1,0,0,1,133,430.5899)" d="M 0 0 L 73 0 L 73 112 L 0 112 Z " fill="#f5f318"/>
</g>
</g>
</g>
</g>
<clipPath id="cp25">
<path transform="matrix(1,0,0,-1,0,647.5899)" d="M 236 175 L 309 175 L 309 384 L 236 384 Z "/>
</clipPath>
<g clip-path="url(#cp25)">
<g>
<clipPath id="cp26">
<path transform="matrix(1,0,0,1,236,263.5899)" d="M 0 0 L 73 0 L 73 209 L 0 209 Z "/>
</clipPath>
<g clip-path="url(#cp26)">
<clipPath id="cp27">
<path transform="matrix(1,0,0,1,236,263.5899)" d="M 0 0 L 73 0 L 73 209 L 0 209 Z "/>
</clipPath>
<g clip-path="url(#cp27)">
<path transform="matrix(1,0,0,1,236,263.5899)" d="M 0 0 L 73 0 L 73 209 L 0 209 Z " fill="#f5f318"/>
</g>
</g>
</g>
</g>
<clipPath id="cp28">
<path transform="matrix(1,0,0,-1,0,647.5899)" d="M 338 384 L 411 384 L 411 509 L 338 509 Z "/>
</clipPath>
<g clip-path="url(#cp28)">
<g>
<clipPath id="cp29">
<path transform="matrix(1,0,0,1,338,138.5899)" d="M 0 0 L 73 0 L 73 125 L 0 125 Z "/>
</clipPath>
<g clip-path="url(#cp29)">
<clipPath id="cp30">
<path transform="matrix(1,0,0,1,338,138.5899)" d="M 0 0 L 73 0 L 73 125 L 0 125 Z "/>
</clipPath>
<g clip-path="url(#cp30)">
<path transform="matrix(1,0,0,1,338,138.5899)" d="M 0 0 L 73 0 L 73 125 L 0 125 Z " fill="#f5f318"/>
</g>
</g>
</g>
</g>
<clipPath id="cp31">
<path transform="matrix(1,0,0,-1,0,647.5899)" d="M 440 194 L 513 194 L 513 374 L 440 374 Z "/>
</clipPath>
<g clip-path="url(#cp31)">
<g>
<clipPath id="cp32">
<path transform="matrix(1,0,0,1,440,273.5899)" d="M 0 0 L 73 0 L 73 180 L 0 180 Z "/>
</clipPath>
<g clip-path="url(#cp32)">
<clipPath id="cp33">
<path transform="matrix(1,0,0,1,440,273.5899)" d="M 0 0 L 73 0 L 73 180 L 0 180 Z "/>
</clipPath>
<g clip-path="url(#cp33)">
<path transform="matrix(1,0,0,1,440,273.5899)" d="M 0 0 L 73 0 L 73 180 L 0 180 Z " fill="#f5f318"/>
</g>
</g>
</g>
</g>
<clipPath id="cp34">
<path transform="matrix(1,0,0,-1,0,647.5899)" d="M 542 384 L 615 384 L 615 509 L 542 509 Z "/>
</clipPath>
<g clip-path="url(#cp34)">
<g>
<clipPath id="cp35">
<path transform="matrix(1,0,0,1,542,138.5899)" d="M 0 0 L 73 0 L 73 125 L 0 125 Z "/>
</clipPath>
<g clip-path="url(#cp35)">
<clipPath id="cp36">
<path transform="matrix(1,0,0,1,542,138.5899)" d="M 0 0 L 73 0 L 73 125 L 0 125 Z "/>
</clipPath>
<g clip-path="url(#cp36)">
<path transform="matrix(1,0,0,1,542,138.5899)" d="M 0 0 L 73 0 L 73 125 L 0 125 Z " fill="#f5f318"/>
</g>
</g>
</g>
</g>
<clipPath id="cp37">
<path transform="matrix(1,0,0,-1,0,647.5899)" d="M 31 12 L 104 12 L 104 82 L 31 82 Z "/>
</clipPath>
<g clip-path="url(#cp37)">
<g>
<clipPath id="cp38">
<path transform="matrix(1,0,0,1,31,565.5899)" d="M 0 0 L 73 0 L 73 70 L 0 70 Z "/>
</clipPath>
<g clip-path="url(#cp38)">
<clipPath id="cp39">
<path transform="matrix(1,0,0,1,31,565.5899)" d="M 0 0 L 73 0 L 73 70 L 0 70 Z "/>
</clipPath>
<g clip-path="url(#cp39)">
<path transform="matrix(1,0,0,1,31,565.5899)" d="M 0 0 L 73 0 L 73 70 L 0 70 Z " fill="#c300c1"/>
</g>
</g>
</g>
</g>
<clipPath id="cp40">
<path transform="matrix(1,0,0,-1,0,647.5899)" d="M 133 12 L 206 12 L 206 105 L 133 105 Z "/>
</clipPath>
<g clip-path="url(#cp40)">
<g>
<clipPath id="cp41">
<path transform="matrix(1,0,0,1,133,542.5899)" d="M 0 0 L 73 0 L 73 93 L 0 93 Z "/>
</clipPath>
<g clip-path="url(#cp41)">
<clipPath id="cp42">
<path transform="matrix(1,0,0,1,133,542.5899)" d="M 0 0 L 73 0 L 73 93 L 0 93 Z "/>
</clipPath>
<g clip-path="url(#cp42)">
<path transform="matrix(1,0,0,1,133,542.5899)" d="M 0 0 L 73 0 L 73 93 L 0 93 Z " fill="#c300c1"/>
</g>
</g>
</g>
</g>
<clipPath id="cp43">
<path transform="matrix(1,0,0,-1,0,647.5899)" d="M 236 12 L 309 12 L 309 175 L 236 175 Z "/>
</clipPath>
<g clip-path="url(#cp43)">
<g>
<clipPath id="cp44">
<path transform="matrix(1,0,0,1,236,472.5899)" d="M 0 0 L 73 0 L 73 163 L 0 163 Z "/>
</clipPath>
<g clip-path="url(#cp44)">
<clipPath id="cp45">
<path transform="matrix(1,0,0,1,236,472.5899)" d="M 0 0 L 73 0 L 73 163 L 0 163 Z "/>
</clipPath>
<g clip-path="url(#cp45)">
<path transform="matrix(1,0,0,1,236,472.5899)" d="M 0 0 L 73 0 L 73 163 L 0 163 Z " fill="#c300c1"/>
</g>
</g>
</g>
</g>
<clipPath id="cp46">
<path transform="matrix(1,0,0,-1,0,647.5899)" d="M 338 12 L 411 12 L 411 384 L 338 384 Z "/>
</clipPath>
<g clip-path="url(#cp46)">
<g>
<clipPath id="cp47">
<path transform="matrix(1,0,0,1,338,263.5899)" d="M 0 0 L 73 0 L 73 372 L 0 372 Z "/>
</clipPath>
<g clip-path="url(#cp47)">
<clipPath id="cp48">
<path transform="matrix(1,0,0,1,338,263.5899)" d="M 0 0 L 73 0 L 73 372 L 0 372 Z "/>
</clipPath>
<g clip-path="url(#cp48)">
<path transform="matrix(1,0,0,1,338,263.5899)" d="M 0 0 L 73 0 L 73 372 L 0 372 Z " fill="#c300c1"/>
</g>
</g>
</g>
</g>
<clipPath id="cp49">
<path transform="matrix(1,0,0,-1,0,647.5899)" d="M 440 12 L 513 12 L 513 194 L 440 194 Z "/>
</clipPath>
<g clip-path="url(#cp49)">
<g>
<clipPath id="cp50">
<path transform="matrix(1,0,0,1,440,453.5899)" d="M 0 0 L 73 0 L 73 182 L 0 182 Z "/>
</clipPath>
<g clip-path="url(#cp50)">
<clipPath id="cp51">
<path transform="matrix(1,0,0,1,440,453.5899)" d="M 0 0 L 73 0 L 73 182 L 0 182 Z "/>
</clipPath>
<g clip-path="url(#cp51)">
<path transform="matrix(1,0,0,1,440,453.5899)" d="M 0 0 L 73 0 L 73 182 L 0 182 Z " fill="#c300c1"/>
</g>
</g>
</g>
</g>
<clipPath id="cp52">
<path transform="matrix(1,0,0,-1,0,647.5899)" d="M 542 12 L 615 12 L 615 384 L 542 384 Z "/>
</clipPath>
<g clip-path="url(#cp52)">
<g>
<clipPath id="cp53">
<path transform="matrix(1,0,0,1,542,263.5899)" d="M 0 0 L 73 0 L 73 372 L 0 372 Z "/>
</clipPath>
<g clip-path="url(#cp53)">
<clipPath id="cp54">
<path transform="matrix(1,0,0,1,542,263.5899)" d="M 0 0 L 73 0 L 73 372 L 0 372 Z "/>
</clipPath>
<g clip-path="url(#cp54)">
<path transform="matrix(1,0,0,1,542,263.5899)" d="M 0 0 L 73 0 L 73 372 L 0 372 Z " fill="#c300c1"/>
</g>
</g>
</g>
</g>
</g>
</g>
</svg>
