<svg id="a1dd5390-4d6e-47d7-816d-465a964807ba" data-name="Layer 1" xmlns="http://www.w3.org/2000/svg" xmlns:xlink="http://www.w3.org/1999/xlink" viewBox="0 0 1184.04 1184.02"><defs><style>.b0be9b52-0058-4381-94b4-916ef19b98e1{fill:none;}.b0e120e9-0e2c-4ecb-b899-583f25a6d8dc{clip-path:url(#e54994ec-98cb-4661-8df9-1aadc4ccbcd3);}.e6f35bf9-5898-46e4-8a40-3711fc884c8c{isolation:isolate;}.a33c7392-ff17-4ae1-9758-7a62d4abc9a3{clip-path:url(#eb5e33d4-8ba0-4666-8d2d-dad75edbf2c9);}.ae6d4f5f-efc7-42e1-9aff-b9faf07dd102{clip-path:url(#e84c3dcb-f9f3-4664-8b59-65a7688b5826);}.beadd8c9-f318-4830-b968-0a52cc788a89{clip-path:url(#a1bd7296-58e1-44fb-af0e-6e60d7882e7a);}.bf8e96b7-08c3-4c2f-8bca-267e15122cba{fill:#c300c1;}.ac63e625-b53e-457b-9b06-7a77a375e6fd{clip-path:url(#fc970eac-7f9a-4a52-aae3-dd19a0627b28);}.e25d88a2-e74a-4531-88ce-868fc3657d2b{fill:#f5f318;}.a74a71e6-5cb6-4b3b-ad92-23b3ab885afe{clip-path:url(#acd5b972-8712-4591-b867-6679451d3a45);}.be47638f-bf3e-4cea-834c-0e26306c1fb9{fill:#14c2a9;}.bf53bce8-9ba3-48a3-b71d-368fc88dbb2c{clip-path:url(#bddbd31d-7e71-44ce-b282-b33ed1f8193f);}.b457e34d-5be1-40d6-8a75-f66d0bab4196{fill:#640acf;}.fcda35ae-844e-4d15-8327-f599b09375ab{clip-path:url(#fa03cccc-07ce-450c-b620-aa912c5d6d55);}.ecc20c20-b052-438b-903e-1e26709e6765{fill:#4dc213;}.f6d8b4ab-f55b-46c8-94bc-6dd8db8fa268{clip-path:url(#a37ef489-c769-408b-b697-edab72310e72);}.ebefe31c-fae8-4a9f-9ccb-2721c6033b82{fill:#0a78c2;}</style><clipPath id="e54994ec-98cb-4661-8df9-1aadc4ccbcd3" transform="translate(0 -0.46)"><rect class="b0be9b52-0058-4381-94b4-916ef19b98e1" width="1184.46" height="1184.46"/></clipPath><clipPath id="eb5e33d4-8ba0-4666-8d2d-dad75edbf2c9" transform="translate(0 -0.46)"><rect class="b0be9b52-0058-4381-94b4-916ef19b98e1" x="-1" y="0.46" width="1265" height="1259"/></clipPath><clipPath id="e84c3dcb-f9f3-4664-8b59-65a7688b5826" transform="translate(0 -0.46)"><rect class="b0be9b52-0058-4381-94b4-916ef19b98e1" y="-0.54" width="1185" height="1185"/></clipPath><clipPath id="a1bd7296-58e1-44fb-af0e-6e60d7882e7a" transform="translate(0 -0.46)"><rect class="b0be9b52-0058-4381-94b4-916ef19b98e1" x="342" y="0.46" width="250" height="272"/></clipPath><clipPath id="fc970eac-7f9a-4a52-aae3-dd19a0627b28" transform="translate(0 -0.46)"><rect class="b0be9b52-0058-4381-94b4-916ef19b98e1" x="113" y="55.46" width="330" height="330"/></clipPath><clipPath id="acd5b972-8712-4591-b867-6679451d3a45" transform="translate(0 -0.46)"><rect class="b0be9b52-0058-4381-94b4-916ef19b98e1" y="244.46" width="306" height="348"/></clipPath><clipPath id="bddbd31d-7e71-44ce-b282-b33ed1f8193f" transform="translate(0 -0.46)"><rect class="b0be9b52-0058-4381-94b4-916ef19b98e1" x="-1" y="591.46" width="318" height="372"/></clipPath><clipPath id="fa03cccc-07ce-450c-b620-aa912c5d6d55" transform="translate(0 -0.46)"><rect class="b0be9b52-0058-4381-94b4-916ef19b98e1" x="130" y="799.46" width="941" height="460"/></clipPath><clipPath id="a37ef489-c769-408b-b697-edab72310e72" transform="translate(0 -0.46)"><rect class="b0be9b52-0058-4381-94b4-916ef19b98e1" x="592" y="0.46" width="672" height="940"/></clipPath></defs><g class="b0e120e9-0e2c-4ecb-b899-583f25a6d8dc"><g class="e6f35bf9-5898-46e4-8a40-3711fc884c8c"><g class="a33c7392-ff17-4ae1-9758-7a62d4abc9a3"><g class="ae6d4f5f-efc7-42e1-9aff-b9faf07dd102"><g class="e6f35bf9-5898-46e4-8a40-3711fc884c8c"><g class="beadd8c9-f318-4830-b968-0a52cc788a89"><g class="ae6d4f5f-efc7-42e1-9aff-b9faf07dd102"><path class="bf8e96b7-08c3-4c2f-8bca-267e15122cba" d="M592,238.64V.46A592.07,592.07,0,0,0,342.53,55.59l100.37,216A353.73,353.73,0,0,1,592,238.64" transform="translate(0 -0.46)"/></g></g></g></g><g class="ae6d4f5f-efc7-42e1-9aff-b9faf07dd102"><g class="e6f35bf9-5898-46e4-8a40-3711fc884c8c"><g class="ac63e625-b53e-457b-9b06-7a77a375e6fd"><g class="ae6d4f5f-efc7-42e1-9aff-b9faf07dd102"><path class="e25d88a2-e74a-4531-88ce-868fc3657d2b" d="M442.9,271.59l-100.37-216A592,592,0,0,0,113.06,244.5l192.69,140A353.82,353.82,0,0,1,442.9,271.59" transform="translate(0 -0.46)"/></g></g></g></g><g class="ae6d4f5f-efc7-42e1-9aff-b9faf07dd102"><g class="e6f35bf9-5898-46e4-8a40-3711fc884c8c"><g class="a74a71e6-5cb6-4b3b-ad92-23b3ab885afe"><g class="ae6d4f5f-efc7-42e1-9aff-b9faf07dd102"><path class="be47638f-bf3e-4cea-834c-0e26306c1fb9" d="M305.75,384.49l-192.69-140A592,592,0,0,0,0,592.46H238.17a353.82,353.82,0,0,1,67.58-208" transform="translate(0 -0.46)"/></g></g></g></g><g class="ae6d4f5f-efc7-42e1-9aff-b9faf07dd102"><g class="e6f35bf9-5898-46e4-8a40-3711fc884c8c"><g class="bf53bce8-9ba3-48a3-b71d-368fc88dbb2c"><g class="ae6d4f5f-efc7-42e1-9aff-b9faf07dd102"><path class="b457e34d-5be1-40d6-8a75-f66d0bab4196" d="M238.17,592.46H0A592,592,0,0,0,130.43,963.17L316.13,814a353.83,353.83,0,0,1-78-221.57" transform="translate(0 -0.46)"/></g></g></g></g><g class="ae6d4f5f-efc7-42e1-9aff-b9faf07dd102"><g class="e6f35bf9-5898-46e4-8a40-3711fc884c8c"><g class="fcda35ae-844e-4d15-8327-f599b09375ab"><g class="ae6d4f5f-efc7-42e1-9aff-b9faf07dd102"><path class="ecc20c20-b052-438b-903e-1e26709e6765" d="M316.13,814,130.43,963.17c204.74,254.91,577.36,295.6,832.27,90.86a591.9,591.9,0,0,0,108.24-113.6l-192.69-140C763.39,958.53,542.12,993.58,384,878.72A353.73,353.73,0,0,1,316.13,814" transform="translate(0 -0.46)"/></g></g></g></g><g class="ae6d4f5f-efc7-42e1-9aff-b9faf07dd102"><g class="e6f35bf9-5898-46e4-8a40-3711fc884c8c"><g class="f6d8b4ab-f55b-46c8-94bc-6dd8db8fa268"><g class="ae6d4f5f-efc7-42e1-9aff-b9faf07dd102"><path class="ebefe31c-fae8-4a9f-9ccb-2721c6033b82" d="M878.25,800.44l192.69,140c192.18-264.51,133.54-634.73-131-826.9A592,592,0,0,0,592,.46V238.64c195.41,0,353.83,158.41,353.83,353.82a353.83,353.83,0,0,1-67.58,208" transform="translate(0 -0.46)"/></g></g></g></g></g></g></g></svg>