<?xml version="1.0" encoding="UTF-8" standalone="no"?>
<!DOCTYPE svg PUBLIC "-//W3C//DTD SVG 1.1//EN" "http://www.w3.org/Graphics/SVG/1.1/DTD/svg11.dtd">
<svg xmlns="http://www.w3.org/2000/svg" xmlns:xlink="http://www.w3.org/1999/xlink" version="1.1" width="1184.465pt" height="1184.465pt" viewBox="0 0 1184.465 1184.465">
<g enable-background="new">
<g>
<clipPath id="cp0">
<path transform="matrix(1,0,0,-1,0,1184.465)" d="M 0 0 L 1184.465 0 L 1184.465 1184.465 L 0 1184.465 Z "/>
</clipPath>
<g clip-path="url(#cp0)">
<g>
<clipPath id="cp1">
<path transform="matrix(1,0,0,-1,0,1184.465)" d="M -1 -75 L 1264 -75 L 1264 1184 L -1 1184 Z "/>
</clipPath>
<g clip-path="url(#cp1)">
<clipPath id="cp2">
<path transform="matrix(1,0,0,-1,0,1184.465)" d="M 0 0 L 1185 0 L 1185 1185 L 0 1185 Z "/>
</clipPath>
<g clip-path="url(#cp2)">
<g>
<clipPath id="cp3">
<path transform="matrix(1,0,0,-1,0,1184.465)" d="M 342 912 L 592 912 L 592 1184 L 342 1184 Z "/>
</clipPath>
<g clip-path="url(#cp3)">
<clipPath id="cp4">
<path transform="matrix(1,0,0,-1,0,1184.465)" d="M 0 0 L 1185 0 L 1185 1185 L 0 1185 Z "/>
</clipPath>
<g clip-path="url(#cp4)">
<path transform="matrix(1,0,0,-1,0,1184.465)" d="M 592 945.8268 L 592 1184 C 505.822 1184 420.6831 1165.185 342.5305 1128.87 L 442.897 912.8764 C 489.6073 934.5815 540.4931 945.8268 592 945.8268 " fill="#c300c1"/>
</g>
</g>
</g>
</g>
<clipPath id="cp5">
<path transform="matrix(1,0,0,-1,0,1184.465)" d="M 0 0 L 1185 0 L 1185 1185 L 0 1185 Z "/>
</clipPath>
<g clip-path="url(#cp5)">
<g>
<clipPath id="cp6">
<path transform="matrix(1,0,0,-1,0,1184.465)" d="M 113 799 L 443 799 L 443 1129 L 113 1129 Z "/>
</clipPath>
<g clip-path="url(#cp6)">
<clipPath id="cp7">
<path transform="matrix(1,0,0,-1,0,1184.465)" d="M 0 0 L 1185 0 L 1185 1185 L 0 1185 Z "/>
</clipPath>
<g clip-path="url(#cp7)">
<path transform="matrix(1,0,0,-1,0,1184.465)" d="M 442.897 912.8764 L 342.5305 1128.87 C 251.2218 1086.441 172.2432 1021.425 113.0619 939.9689 L 305.7481 799.9742 C 341.1196 848.6588 388.3235 887.5176 442.897 912.8764 " fill="#f5f318"/>
</g>
</g>
</g>
</g>
<clipPath id="cp8">
<path transform="matrix(1,0,0,-1,0,1184.465)" d="M 0 0 L 1185 0 L 1185 1185 L 0 1185 Z "/>
</clipPath>
<g clip-path="url(#cp8)">
<g>
<clipPath id="cp9">
<path transform="matrix(1,0,0,-1,0,1184.465)" d="M 0 592 L 306 592 L 306 940 L 0 940 Z "/>
</clipPath>
<g clip-path="url(#cp9)">
<clipPath id="cp10">
<path transform="matrix(1,0,0,-1,0,1184.465)" d="M 0 0 L 1185 0 L 1185 1185 L 0 1185 Z "/>
</clipPath>
<g clip-path="url(#cp10)">
<path transform="matrix(1,0,0,-1,0,1184.465)" d="M 305.7481 799.9742 L 113.0619 939.9689 C 39.57813 838.8271 0 717.0181 0 592 L 238.1732 592 C 238.1732 666.7209 261.8283 739.5237 305.7481 799.9742 " fill="#14c2a9"/>
</g>
</g>
</g>
</g>
<clipPath id="cp11">
<path transform="matrix(1,0,0,-1,0,1184.465)" d="M 0 0 L 1185 0 L 1185 1185 L 0 1185 Z "/>
</clipPath>
<g clip-path="url(#cp11)">
<g>
<clipPath id="cp12">
<path transform="matrix(1,0,0,-1,0,1184.465)" d="M -1 221 L 317 221 L 317 593 L -1 593 Z "/>
</clipPath>
<g clip-path="url(#cp12)">
<clipPath id="cp13">
<path transform="matrix(1,0,0,-1,0,1184.465)" d="M 0 0 L 1185 0 L 1185 1185 L 0 1185 Z "/>
</clipPath>
<g clip-path="url(#cp13)">
<path transform="matrix(1,0,0,-1,0,1184.465)" d="M 238.1732 592 L 0 592 C 0 457.1858 46.01416 326.4095 130.4328 221.2984 L 316.1303 370.4389 C 265.675 433.2618 238.1732 511.4242 238.1732 592 " fill="#640acf"/>
</g>
</g>
</g>
</g>
<clipPath id="cp14">
<path transform="matrix(1,0,0,-1,0,1184.465)" d="M 0 0 L 1185 0 L 1185 1185 L 0 1185 Z "/>
</clipPath>
<g clip-path="url(#cp14)">
<g>
<clipPath id="cp15">
<path transform="matrix(1,0,0,-1,0,1184.465)" d="M 130 -75 L 1071 -75 L 1071 385 L 130 385 Z "/>
</clipPath>
<g clip-path="url(#cp15)">
<clipPath id="cp16">
<path transform="matrix(1,0,0,-1,0,1184.465)" d="M 0 0 L 1185 0 L 1185 1185 L 0 1185 Z "/>
</clipPath>
<g clip-path="url(#cp16)">
<path transform="matrix(1,0,0,-1,0,1184.465)" d="M 316.1303 370.4389 L 130.4328 221.2984 C 335.1656 -33.61817 707.7851 -74.30008 962.7016 130.4328 C 1003.661 163.3287 1040.059 201.5303 1070.938 244.0311 L 878.2519 384.0258 C 763.3909 225.9333 542.1184 190.8872 384.0258 305.7481 C 358.6239 324.2037 335.7916 345.9583 316.1303 370.4389 " fill="#4dc213"/>
</g>
</g>
</g>
</g>
<clipPath id="cp17">
<path transform="matrix(1,0,0,-1,0,1184.465)" d="M 0 0 L 1185 0 L 1185 1185 L 0 1185 Z "/>
</clipPath>
<g clip-path="url(#cp17)">
<g>
<clipPath id="cp18">
<path transform="matrix(1,0,0,-1,0,1184.465)" d="M 592 244 L 1264 244 L 1264 1184 L 592 1184 Z "/>
</clipPath>
<g clip-path="url(#cp18)">
<clipPath id="cp19">
<path transform="matrix(1,0,0,-1,0,1184.465)" d="M 0 0 L 1185 0 L 1185 1185 L 0 1185 Z "/>
</clipPath>
<g clip-path="url(#cp19)">
<path transform="matrix(1,0,0,-1,0,1184.465)" d="M 878.2519 384.0258 L 1070.938 244.0311 C 1263.116 508.5413 1204.479 878.7602 939.9689 1070.938 C 838.8271 1144.422 717.0181 1184 592 1184 L 592 945.8268 C 787.4131 945.8268 945.8268 787.4131 945.8268 592 C 945.8268 517.2791 922.1717 444.4763 878.2519 384.0258 " fill="#0a78c2"/>
</g>
</g>
</g>
</g>
</g>
</g>
</g>
</g>
</g>
</svg>
