<svg id="a2fa2def-0710-45d0-897b-999d09b0fe06" data-name="Layer 1" xmlns="http://www.w3.org/2000/svg" xmlns:xlink="http://www.w3.org/1999/xlink" viewBox="0 0 614.65 587.84"><defs><style>.a56f487c-456e-45bc-a074-7c18aafe76d9,.ef346984-cf58-4584-8693-cf0eb5a68368,.f857246f-5c17-4bb7-b1e5-cfd377a596a8{fill:none;}.a45b4f2e-6830-4ef0-be90-00b82c57e06b{clip-path:url(#f1581127-2fd5-4a9e-83de-a39eaea8abaf);}.a019d778-8881-4094-9a7b-e8c2822c6b7b{fill:#0a78c2;}.a019d778-8881-4094-9a7b-e8c2822c6b7b,.e1af73de-616f-4fc5-b61f-e535486d2cf4{opacity:0.2;}.a7590314-69c4-4829-b48d-82f6ed98df2c{clip-path:url(#a4dce715-1f4c-491e-acdc-8a1b00542739);}.ef346984-cf58-4584-8693-cf0eb5a68368{stroke:#0a78c2;}.a56f487c-456e-45bc-a074-7c18aafe76d9,.ef346984-cf58-4584-8693-cf0eb5a68368{stroke-width:3px;}.afeb4590-e32e-486f-92d0-b7e1b94c5f7c{clip-path:url(#f759e2c0-f527-4635-a760-471cffb4e5f4);}.e1af73de-616f-4fc5-b61f-e535486d2cf4{fill:#c300c1;}.a56f487c-456e-45bc-a074-7c18aafe76d9{stroke:#c300c1;}</style><clipPath id="f1581127-2fd5-4a9e-83de-a39eaea8abaf" transform="translate(-15.74 -48.6)"><rect class="f857246f-5c17-4bb7-b1e5-cfd377a596a8" x="17" y="174.52" width="613" height="461.57"/></clipPath><clipPath id="a4dce715-1f4c-491e-acdc-8a1b00542739" transform="translate(-15.74 -48.6)"><rect class="f857246f-5c17-4bb7-b1e5-cfd377a596a8" x="14.85" y="21.64" width="616.6" height="616.6"/></clipPath><clipPath id="f759e2c0-f527-4635-a760-471cffb4e5f4" transform="translate(-15.74 -48.6)"><rect class="f857246f-5c17-4bb7-b1e5-cfd377a596a8" x="17" y="48.42" width="613" height="587.67"/></clipPath></defs><g class="a45b4f2e-6830-4ef0-be90-00b82c57e06b"><polyline class="a019d778-8881-4094-9a7b-e8c2822c6b7b" points="1.26 400.97 6.17 397.23 11.07 395.33 15.97 391.48 20.88 383.62 25.78 377.49 30.69 375.39 35.59 373.27 40.49 366.83 45.4 360.2 50.3 353.37 55.21 358.06 60.11 353.46 65.01 353.46 69.92 353.46 74.82 355.81 79.73 358.13 84.63 353.53 89.53 353.53 94.44 358.22 99.34 360.51 104.25 351.42 109.15 344.33 114.05 334.59 118.96 334.59 123.86 332.06 128.77 321.82 133.67 324.49 138.57 313.95 143.48 319.43 148.38 324.8 153.29 319.54 158.19 314.17 163.09 311.43 168 305.9 172.9 311.54 177.81 303.25 182.71 308.95 187.61 300.58 192.52 306.32 197.42 303.51 202.33 300.67 207.23 297.8 212.13 291.99 217.04 283.12 221.94 273.98 226.85 273.98 231.75 270.84 236.65 267.67 241.56 258.06 246.46 251.47 251.37 244.74 256.27 248.17 261.17 241.38 266.08 227.52 270.98 234.72 275.89 224.13 280.79 231.41 285.69 234.97 290.6 224.38 295.5 213.48 300.41 213.48 305.31 198.51 310.21 206.29 315.12 210.11 320.02 213.88 324.93 213.88 329.83 217.63 334.73 221.33 339.64 206.67 344.54 214.29 349.45 206.82 354.35 195.39 359.25 203.24 364.16 187.85 369.06 191.85 373.97 187.89 378.87 195.89 383.77 203.73 388.68 192.21 393.58 192.21 398.49 176.38 403.39 172.27 408.29 180.58 413.2 176.51 418.1 180.62 423.01 188.76 427.91 192.75 432.81 200.66 437.72 204.53 442.62 212.19 447.53 215.95 452.43 208.51 457.33 200.93 462.24 197.06 467.14 185.34 472.05 189.36 476.95 173.42 481.85 181.71 486.76 189.83 491.66 197.79 496.57 205.59 501.47 205.59 506.37 213.24 511.28 220.73 516.18 217.06 521.09 202.23 525.99 194.51 530.89 194.51 535.8 190.58 540.7 174.69 545.61 178.82 550.51 170.64 555.41 170.64 560.32 162.3 565.22 145.28 570.13 136.43 575.03 136.43 579.93 140.94 584.84 140.94 589.74 149.88 594.65 154.26 599.55 145.59 604.45 136.74 609.36 127.72 614.26 587.84 1.26 587.84 1.26 400.97"/></g><g class="a7590314-69c4-4829-b48d-82f6ed98df2c"><polyline class="ef346984-cf58-4584-8693-cf0eb5a68368" points="0.91 400.97 5.82 397.23 10.72 395.33 15.62 391.48 20.53 383.62 25.43 377.49 30.34 375.39 35.24 373.27 40.14 366.83 45.05 360.2 49.95 353.37 54.86 358.06 59.76 353.46 64.66 353.46 69.57 353.46 74.47 355.81 79.38 358.13 84.28 353.53 89.18 353.53 94.09 358.22 98.99 360.51 103.9 351.42 108.8 344.33 113.7 334.59 118.61 334.59 123.51 332.06 128.42 321.82 133.32 324.49 138.22 313.95 143.13 319.43 148.03 324.8 152.94 319.54 157.84 314.17 162.74 311.43 167.65 305.9 172.55 311.54 177.46 303.25 182.36 308.95 187.26 300.58 192.17 306.32 197.07 303.51 201.98 300.67 206.88 297.8 211.78 291.99 216.69 283.12 221.59 273.98 226.5 273.98 231.4 270.84 236.3 267.67 241.21 258.06 246.11 251.47 251.02 244.74 255.92 248.17 260.82 241.38 265.73 227.52 270.63 234.72 275.54 224.13 280.44 231.41 285.34 234.97 290.25 224.38 295.15 213.48 300.06 213.48 304.96 198.51 309.86 206.29 314.77 210.11 319.67 213.88 324.58 213.88 329.48 217.63 334.38 221.33 339.29 206.67 344.19 214.29 349.1 206.82 354 195.39 358.9 203.24 363.81 187.85 368.71 191.85 373.62 187.89 378.52 195.89 383.42 203.73 388.33 192.21 393.23 192.21 398.14 176.38 403.04 172.27 407.94 180.58 412.85 176.51 417.75 180.62 422.66 188.76 427.56 192.75 432.46 200.66 437.37 204.53 442.27 212.19 447.18 215.95 452.08 208.51 456.98 200.93 461.89 197.06 466.79 185.34 471.7 189.36 476.6 173.42 481.5 181.71 486.41 189.83 491.31 197.79 496.22 205.59 501.12 205.59 506.02 213.24 510.93 220.73 515.83 217.06 520.74 202.23 525.64 194.51 530.54 194.51 535.45 190.58 540.35 174.69 545.26 178.82 550.16 170.64 555.06 170.64 559.97 162.3 564.87 145.28 569.78 136.43 574.68 136.43 579.58 140.94 584.49 140.94 589.39 149.88 594.3 154.26 599.2 145.59 604.1 136.74 609.01 127.72"/></g><g class="afeb4590-e32e-486f-92d0-b7e1b94c5f7c"><polyline class="e1af73de-616f-4fc5-b61f-e535486d2cf4" points="1.26 511.22 6.17 507.46 11.07 502 15.97 497.96 20.88 492.93 25.78 488.66 30.69 481.32 35.59 475.67 40.49 468.72 45.4 463.83 50.3 458.87 55.21 452.55 60.11 444.71 65.01 436.55 69.92 431.1 74.82 420.91 79.73 413.57 84.63 402.59 89.53 392.96 94.44 381.07 99.34 374.87 104.25 366.56 109.15 355.94 114.05 345.04 118.96 336.3 123.86 327.49 128.77 318.64 133.67 309.76 138.57 295.3 143.48 286.23 148.38 274.16 153.29 261.93 158.19 249.55 163.09 237.03 168 220.89 172.9 204.38 177.81 191.34 182.71 182.22 187.61 173.3 192.52 156.3 197.42 139.04 202.33 126.02 207.23 122.33 212.13 109.76 217.04 106.89 221.94 104.49 226.85 92.89 231.75 86.45 236.65 75.42 241.56 74.91 246.46 59.52 251.37 54.77 256.27 50.5 261.17 46.74 266.08 43.49 270.98 29.89 275.89 22.07 280.79 9.06 285.69 13.69 290.6 13.12 295.5 1.62 300.41 2.21 305.31 3.38 310.21 10.98 315.12 7.52 320.02 4.62 324.93 2.28 329.83 6.38 334.73 5.22 339.64 10.46 344.54 10.46 349.45 16.81 354.35 29.38 359.25 36.64 364.16 49.87 369.06 47.17 373.97 50.42 378.87 54.18 383.77 58.45 388.68 73.8 393.58 89.22 398.49 89.72 403.39 100.68 408.29 107.01 413.2 113.75 418.1 116.12 423.01 118.95 427.91 131.61 432.81 144.38 437.72 157.24 442.62 174.47 447.53 183.15 452.43 192.05 457.33 197.19 462.24 210.48 467.14 216.14 472.05 229.52 476.95 242.78 481.85 252.44 486.76 268.87 491.66 275.25 496.57 288.07 501.47 294.66 506.37 301.41 511.28 304.27 516.18 304.27 521.09 307.11 525.99 304.3 530.89 301.46 535.8 298.6 540.7 298.6 545.61 295.71 550.51 298.63 555.41 295.74 560.32 298.66 565.22 301.55 570.13 304.41 575.03 301.58 579.93 304.44 584.84 304.44 589.74 307.28 594.65 310.08 599.55 312.86 604.45 310.11 609.36 310.11 614.26 312.89 614.26 587.84 1.26 587.84 1.26 511.22"/></g><g class="a7590314-69c4-4829-b48d-82f6ed98df2c"><polyline class="a56f487c-456e-45bc-a074-7c18aafe76d9" points="0.91 511.22 5.82 507.46 10.72 502 15.62 497.96 20.53 492.93 25.43 488.66 30.34 481.32 35.24 475.67 40.14 468.72 45.05 463.83 49.95 458.87 54.86 452.55 59.76 444.71 64.66 436.55 69.57 431.1 74.47 420.91 79.38 413.57 84.28 402.59 89.18 392.96 94.09 381.07 98.99 374.87 103.9 366.56 108.8 355.94 113.7 345.04 118.61 336.3 123.51 327.49 128.42 318.64 133.32 309.76 138.22 295.3 143.13 286.23 148.03 274.16 152.94 261.93 157.84 249.55 162.74 237.03 167.65 220.89 172.55 204.38 177.46 191.34 182.36 182.22 187.26 173.3 192.17 156.3 197.07 139.04 201.98 126.02 206.88 122.33 211.78 109.76 216.69 106.89 221.59 104.49 226.5 92.89 231.4 86.45 236.3 75.42 241.21 74.91 246.11 59.52 251.02 54.77 255.92 50.5 260.82 46.74 265.73 43.49 270.63 29.89 275.54 22.07 280.44 9.06 285.34 13.69 290.25 13.12 295.15 1.62 300.06 2.21 304.96 3.38 309.86 10.98 314.77 7.52 319.67 4.62 324.58 2.28 329.48 6.38 334.38 5.22 339.29 10.46 344.19 10.46 349.1 16.81 354 29.38 358.9 36.64 363.81 49.87 368.71 47.17 373.62 50.42 378.52 54.18 383.42 58.45 388.33 73.8 393.23 89.22 398.14 89.72 403.04 100.68 407.94 107.01 412.85 113.75 417.75 116.12 422.66 118.95 427.56 131.61 432.46 144.38 437.37 157.24 442.27 174.47 447.18 183.15 452.08 192.05 456.98 197.2 461.89 210.48 466.79 216.14 471.7 229.52 476.6 242.78 481.5 252.44 486.41 268.87 491.31 275.25 496.22 288.07 501.12 294.66 506.02 301.41 510.93 304.27 515.83 304.27 520.74 307.11 525.64 304.3 530.54 301.46 535.45 298.6 540.35 298.6 545.26 295.71 550.16 298.63 555.06 295.74 559.97 298.66 564.87 301.55 569.78 304.41 574.68 301.58 579.58 304.44 584.49 304.44 589.39 307.28 594.3 310.08 599.2 312.86 604.1 310.11 609.01 310.11 613.91 312.89"/></g></svg>